<svg width="30" height="20" viewBox="0 0 30 20" fill="none" xmlns="http://www.w3.org/2000/svg">
<rect x="10" y="5" width="20" height="8" rx="4" fill="#BB01FD"/>
<path d="M12.524 18.048C12.424 18.048 12.338 18.024 12.266 17.976C12.194 17.924 12.136 17.844 12.092 17.736L11.222 15.516C11.186 15.42 11.174 15.336 11.186 15.264C11.202 15.188 11.24 15.128 11.3 15.084C11.36 15.04 11.44 15.018 11.54 15.018C11.628 15.018 11.7 15.04 11.756 15.084C11.812 15.124 11.86 15.202 11.9 15.318L12.626 17.316H12.488L13.238 15.27C13.27 15.182 13.312 15.118 13.364 15.078C13.42 15.038 13.492 15.018 13.58 15.018C13.668 15.018 13.74 15.04 13.796 15.084C13.852 15.124 13.894 15.186 13.922 15.27L14.66 17.316H14.534L15.266 15.3C15.306 15.192 15.356 15.118 15.416 15.078C15.48 15.038 15.55 15.018 15.626 15.018C15.722 15.018 15.796 15.042 15.848 15.09C15.9 15.138 15.93 15.2 15.938 15.276C15.946 15.348 15.932 15.428 15.896 15.516L15.032 17.736C14.992 17.84 14.934 17.918 14.858 17.97C14.786 18.022 14.7 18.048 14.6 18.048C14.5 18.048 14.412 18.022 14.336 17.97C14.264 17.918 14.208 17.84 14.168 17.736L13.382 15.654H13.724L12.956 17.73C12.916 17.838 12.86 17.918 12.788 17.97C12.716 18.022 12.628 18.048 12.524 18.048ZM17.7846 18.06C17.4806 18.06 17.2166 17.998 16.9926 17.874C16.7686 17.75 16.5946 17.574 16.4706 17.346C16.3466 17.114 16.2846 16.842 16.2846 16.53C16.2846 16.294 16.3186 16.084 16.3866 15.9C16.4586 15.712 16.5606 15.552 16.6926 15.42C16.8246 15.284 16.9826 15.182 17.1666 15.114C17.3506 15.042 17.5566 15.006 17.7846 15.006C18.0886 15.006 18.3526 15.068 18.5766 15.192C18.8006 15.316 18.9746 15.492 19.0986 15.72C19.2226 15.948 19.2846 16.218 19.2846 16.53C19.2846 16.766 19.2486 16.978 19.1766 17.166C19.1086 17.354 19.0086 17.516 18.8766 17.652C18.7446 17.784 18.5866 17.886 18.4026 17.958C18.2186 18.026 18.0126 18.06 17.7846 18.06ZM17.7846 17.49C17.9326 17.49 18.0626 17.454 18.1746 17.382C18.2866 17.31 18.3726 17.204 18.4326 17.064C18.4966 16.92 18.5286 16.742 18.5286 16.53C18.5286 16.21 18.4606 15.972 18.3246 15.816C18.1886 15.656 18.0086 15.576 17.7846 15.576C17.6366 15.576 17.5066 15.612 17.3946 15.684C17.2826 15.752 17.1946 15.858 17.1306 16.002C17.0706 16.142 17.0406 16.318 17.0406 16.53C17.0406 16.846 17.1086 17.086 17.2446 17.25C17.3806 17.41 17.5606 17.49 17.7846 17.49ZM20.2877 18.048C20.1637 18.048 20.0677 18.016 19.9997 17.952C19.9357 17.884 19.9037 17.788 19.9037 17.664V15.396C19.9037 15.272 19.9357 15.178 19.9997 15.114C20.0637 15.05 20.1537 15.018 20.2697 15.018C20.3857 15.018 20.4757 15.05 20.5397 15.114C20.6037 15.178 20.6357 15.272 20.6357 15.396V15.774H20.5757C20.6317 15.534 20.7417 15.352 20.9057 15.228C21.0697 15.104 21.2877 15.03 21.5597 15.006C21.6437 14.998 21.7097 15.02 21.7577 15.072C21.8097 15.12 21.8397 15.196 21.8477 15.3C21.8557 15.4 21.8317 15.482 21.7757 15.546C21.7237 15.606 21.6437 15.642 21.5357 15.654L21.4037 15.666C21.1597 15.69 20.9757 15.766 20.8517 15.894C20.7277 16.018 20.6657 16.194 20.6657 16.422V17.664C20.6657 17.788 20.6337 17.884 20.5697 17.952C20.5057 18.016 20.4117 18.048 20.2877 18.048ZM22.6253 18.048C22.5053 18.048 22.4133 18.016 22.3493 17.952C22.2853 17.884 22.2533 17.788 22.2533 17.664V14.1C22.2533 13.976 22.2853 13.882 22.3493 13.818C22.4133 13.754 22.5053 13.722 22.6253 13.722C22.7453 13.722 22.8373 13.754 22.9013 13.818C22.9693 13.882 23.0033 13.976 23.0033 14.1V16.314H23.0153L24.0053 15.27C24.0853 15.19 24.1553 15.128 24.2153 15.084C24.2753 15.04 24.3573 15.018 24.4613 15.018C24.5653 15.018 24.6433 15.046 24.6953 15.102C24.7513 15.154 24.7793 15.218 24.7793 15.294C24.7793 15.37 24.7433 15.446 24.6713 15.522L23.6273 16.626V16.314L24.7733 17.55C24.8453 17.626 24.8773 17.704 24.8693 17.784C24.8653 17.86 24.8333 17.924 24.7733 17.976C24.7133 18.024 24.6373 18.048 24.5453 18.048C24.4333 18.048 24.3433 18.026 24.2753 17.982C24.2113 17.938 24.1393 17.872 24.0593 17.784L23.0153 16.692H23.0033V17.664C23.0033 17.92 22.8773 18.048 22.6253 18.048Z" fill="#2A7FFF"/>
<path d="M12.032 11.064C11.872 11.064 11.7493 11.0213 11.664 10.936C11.5787 10.8453 11.536 10.7173 11.536 10.552V7.528C11.536 7.36267 11.5787 7.23733 11.664 7.152C11.7493 7.06667 11.8693 7.024 12.024 7.024C12.1787 7.024 12.2987 7.06667 12.384 7.152C12.4693 7.23733 12.512 7.36267 12.512 7.528V8.112L12.424 7.872C12.5307 7.60533 12.696 7.39467 12.92 7.24C13.144 7.08533 13.4107 7.008 13.72 7.008C14.0347 7.008 14.2933 7.08267 14.496 7.232C14.6987 7.38133 14.84 7.61067 14.92 7.92H14.808C14.9147 7.63733 15.0907 7.416 15.336 7.256C15.5813 7.09067 15.864 7.008 16.184 7.008C16.4827 7.008 16.728 7.06667 16.92 7.184C17.1173 7.30133 17.264 7.48 17.36 7.72C17.456 7.95467 17.504 8.25333 17.504 8.616V10.552C17.504 10.7173 17.4587 10.8453 17.368 10.936C17.2827 11.0213 17.16 11.064 17 11.064C16.84 11.064 16.7173 11.0213 16.632 10.936C16.5467 10.8453 16.504 10.7173 16.504 10.552V8.656C16.504 8.35733 16.4533 8.13867 16.352 8C16.256 7.86133 16.0907 7.792 15.856 7.792C15.5947 7.792 15.3893 7.88533 15.24 8.072C15.0907 8.25333 15.016 8.50667 15.016 8.832V10.552C15.016 10.7173 14.9733 10.8453 14.888 10.936C14.8027 11.0213 14.68 11.064 14.52 11.064C14.36 11.064 14.2347 11.0213 14.144 10.936C14.0587 10.8453 14.016 10.7173 14.016 10.552V8.656C14.016 8.35733 13.9653 8.13867 13.864 8C13.768 7.86133 13.6053 7.792 13.376 7.792C13.1147 7.792 12.9093 7.88533 12.76 8.072C12.6107 8.25333 12.536 8.50667 12.536 8.832V10.552C12.536 10.8933 12.368 11.064 12.032 11.064ZM19.8236 11.08C19.541 11.08 19.2876 11.0267 19.0636 10.92C18.845 10.808 18.6716 10.6587 18.5436 10.472C18.421 10.2853 18.3596 10.0747 18.3596 9.84C18.3596 9.552 18.4343 9.32533 18.5836 9.16C18.733 8.98933 18.9756 8.86667 19.3116 8.792C19.6476 8.71733 20.0983 8.68 20.6636 8.68H21.0636V9.256H20.6716C20.341 9.256 20.077 9.272 19.8796 9.304C19.6823 9.336 19.541 9.392 19.4556 9.472C19.3756 9.54667 19.3356 9.65333 19.3356 9.792C19.3356 9.968 19.397 10.112 19.5196 10.224C19.6423 10.336 19.813 10.392 20.0316 10.392C20.2076 10.392 20.3623 10.352 20.4956 10.272C20.6343 10.1867 20.7436 10.072 20.8236 9.928C20.9036 9.784 20.9436 9.61867 20.9436 9.432V8.512C20.9436 8.24533 20.885 8.05333 20.7676 7.936C20.6503 7.81867 20.453 7.76 20.1756 7.76C20.021 7.76 19.853 7.77867 19.6716 7.816C19.4956 7.85333 19.309 7.91733 19.1116 8.008C19.0103 8.056 18.9196 8.06933 18.8396 8.048C18.765 8.02667 18.7063 7.984 18.6636 7.92C18.621 7.85067 18.5996 7.776 18.5996 7.696C18.5996 7.616 18.621 7.53867 18.6636 7.464C18.7063 7.384 18.7783 7.32533 18.8796 7.288C19.125 7.18667 19.3596 7.11467 19.5836 7.072C19.813 7.02933 20.021 7.008 20.2076 7.008C20.5916 7.008 20.9063 7.06667 21.1516 7.184C21.4023 7.30133 21.589 7.48 21.7116 7.72C21.8343 7.95467 21.8956 8.25867 21.8956 8.632V10.552C21.8956 10.7173 21.8556 10.8453 21.7756 10.936C21.6956 11.0213 21.581 11.064 21.4316 11.064C21.2823 11.064 21.165 11.0213 21.0796 10.936C20.9996 10.8453 20.9596 10.7173 20.9596 10.552V10.168H21.0236C20.9863 10.3547 20.9116 10.5173 20.7996 10.656C20.693 10.7893 20.557 10.8933 20.3916 10.968C20.2263 11.0427 20.037 11.08 19.8236 11.08ZM23.4226 11.064C23.2573 11.064 23.1293 11.0213 23.0386 10.936C22.9533 10.8453 22.9106 10.7173 22.9106 10.552V7.528C22.9106 7.36267 22.9533 7.23733 23.0386 7.152C23.124 7.06667 23.244 7.024 23.3986 7.024C23.5533 7.024 23.6733 7.06667 23.7586 7.152C23.844 7.23733 23.8866 7.36267 23.8866 7.528V8.032H23.8066C23.8813 7.712 24.028 7.46933 24.2466 7.304C24.4653 7.13867 24.756 7.04 25.1186 7.008C25.2306 6.99733 25.3186 7.02667 25.3826 7.096C25.452 7.16 25.492 7.26133 25.5026 7.4C25.5133 7.53333 25.4813 7.64267 25.4066 7.728C25.3373 7.808 25.2306 7.856 25.0866 7.872L24.9106 7.888C24.5853 7.92 24.34 8.02133 24.1746 8.192C24.0093 8.35733 23.9266 8.592 23.9266 8.896V10.552C23.9266 10.7173 23.884 10.8453 23.7986 10.936C23.7133 11.0213 23.588 11.064 23.4226 11.064ZM28.062 11.08C27.7153 11.08 27.4247 11.0213 27.19 10.904C26.9607 10.7867 26.79 10.616 26.678 10.392C26.566 10.1627 26.51 9.88 26.51 9.544V7.84H26.094C25.966 7.84 25.8673 7.808 25.798 7.744C25.7287 7.67467 25.694 7.58133 25.694 7.464C25.694 7.34133 25.7287 7.248 25.798 7.184C25.8673 7.12 25.966 7.088 26.094 7.088H26.51V6.36C26.51 6.19467 26.5527 6.06933 26.638 5.984C26.7287 5.89867 26.854 5.856 27.014 5.856C27.174 5.856 27.2967 5.89867 27.382 5.984C27.4673 6.06933 27.51 6.19467 27.51 6.36V7.088H28.358C28.486 7.088 28.5847 7.12 28.654 7.184C28.7233 7.248 28.758 7.34133 28.758 7.464C28.758 7.58133 28.7233 7.67467 28.654 7.744C28.5847 7.808 28.486 7.84 28.358 7.84H27.51V9.488C27.51 9.744 27.566 9.936 27.678 10.064C27.79 10.192 27.9713 10.256 28.222 10.256C28.3127 10.256 28.3927 10.248 28.462 10.232C28.5313 10.216 28.5927 10.2053 28.646 10.2C28.71 10.1947 28.7633 10.216 28.806 10.264C28.8487 10.3067 28.87 10.3973 28.87 10.536C28.87 10.6427 28.8513 10.7387 28.814 10.824C28.782 10.904 28.7207 10.96 28.63 10.992C28.5607 11.0133 28.47 11.032 28.358 11.048C28.246 11.0693 28.1473 11.08 28.062 11.08Z" fill="#F5F5F5"/>
<path d="M5.76 18.18C5.232 18.18 4.704 18.138 4.176 18.054C3.648 17.982 3.15 17.868 2.682 17.712C2.214 17.544 1.794 17.34 1.422 17.1C1.206 16.956 1.056 16.782 0.972 16.578C0.888 16.374 0.858 16.176 0.882 15.984C0.918 15.78 0.996 15.606 1.116 15.462C1.248 15.306 1.41 15.21 1.602 15.174C1.794 15.138 2.004 15.192 2.232 15.336C2.76 15.648 3.318 15.876 3.906 16.02C4.494 16.164 5.112 16.236 5.76 16.236C6.708 16.236 7.398 16.08 7.83 15.768C8.262 15.444 8.478 15.03 8.478 14.526C8.478 14.106 8.322 13.776 8.01 13.536C7.71 13.296 7.188 13.098 6.444 12.942L4.464 12.528C3.324 12.288 2.472 11.886 1.908 11.322C1.356 10.746 1.08 9.99 1.08 9.054C1.08 8.466 1.2 7.932 1.44 7.452C1.68 6.972 2.016 6.558 2.448 6.21C2.892 5.862 3.414 5.598 4.014 5.418C4.626 5.226 5.298 5.13 6.03 5.13C6.75 5.13 7.434 5.22 8.082 5.4C8.73 5.58 9.312 5.844 9.828 6.192C10.02 6.324 10.146 6.486 10.206 6.678C10.278 6.87 10.296 7.062 10.26 7.254C10.224 7.434 10.14 7.59 10.008 7.722C9.876 7.854 9.708 7.932 9.504 7.956C9.312 7.98 9.09 7.92 8.838 7.776C8.394 7.524 7.944 7.344 7.488 7.236C7.032 7.128 6.54 7.074 6.012 7.074C5.46 7.074 4.986 7.152 4.59 7.308C4.194 7.464 3.888 7.686 3.672 7.974C3.468 8.25 3.366 8.58 3.366 8.964C3.366 9.396 3.51 9.744 3.798 10.008C4.086 10.26 4.578 10.458 5.274 10.602L7.236 11.016C8.424 11.268 9.306 11.664 9.882 12.204C10.47 12.744 10.764 13.464 10.764 14.364C10.764 14.94 10.644 15.462 10.404 15.93C10.176 16.398 9.84 16.8 9.396 17.136C8.964 17.472 8.442 17.73 7.83 17.91C7.218 18.09 6.528 18.18 5.76 18.18Z" fill="#BB01FD"/>
</svg>
